<?xml version="1.0" standalone="no"?><!-- Generator: Gravit.io --><svg xmlns="http://www.w3.org/2000/svg" xmlns:xlink="http://www.w3.org/1999/xlink" style="isolation:isolate" viewBox="1364 460 100 100" width="100" height="100"><g id="Group"><path d=" M 1364 510 C 1364 482.404 1386.404 460 1414 460 C 1441.596 460 1464 482.404 1464 510 C 1464 537.596 1441.596 560 1414 560 C 1386.404 560 1364 537.596 1364 510 Z " fill="rgb(232,66,0)"/><path d=" M 1397.916 494.571 L 1430.085 494.571 L 1426.969 530.868 C 1426.829 532.63 1425.362 533.991 1423.595 534 L 1404.407 534 C 1402.639 533.991 1401.173 532.63 1401.033 530.868 L 1397.916 494.571 Z  M 1414.848 498 L 1413.154 498 L 1413.154 527.143 L 1414.848 527.143 L 1414.848 498 Z  M 1406.382 498 L 1408.075 527.143 L 1409.767 527.143 L 1408.075 498 L 1406.382 498 Z  M 1421.62 498 L 1419.927 498 L 1418.233 527.143 L 1419.927 527.143 L 1421.62 498 Z  M 1410.167 486 L 1417.833 486 C 1419.121 486.002 1420.297 486.737 1420.862 487.895 L 1421.62 489.428 L 1431.778 489.428 L 1431.778 492.857 L 1396.222 492.857 L 1396.222 489.428 L 1406.382 489.428 L 1407.14 487.895 C 1407.706 486.738 1408.879 486.004 1410.167 486 Z " fill-rule="evenodd" fill="rgb(255,255,255)"/></g></svg>